<mxfile host="Electron" modified="2023-05-27T14:40:50.189Z" agent="Mozilla/5.0 (Macintosh; Intel Mac OS X 10_15_7) AppleWebKit/537.36 (KHTML, like Gecko) draw.io/21.2.1 Chrome/112.0.5615.87 Electron/24.1.2 Safari/537.36" etag="E_yLK0Dv-BnG9PuNOLW2" version="21.2.1" type="device">
  <diagram name="Page-1" id="H1nZVYqxkzLZFgEqRADx">
    <mxGraphModel dx="2112" dy="4280" grid="1" gridSize="10" guides="1" tooltips="1" connect="1" arrows="1" fold="1" page="1" pageScale="1" pageWidth="850" pageHeight="1100" math="0" shadow="0">
      <root>
        <mxCell id="0" />
        <mxCell id="1" parent="0" />
        <mxCell id="AsBp8XiL8Dx4Y6rQVwFH-389" value="R, W: 111, H: 98, ORDER: 10, GC: {41, 26, 44, 15, 11, 4, 7, 57, 3, 54} " style="text;html=1;strokeColor=none;fillColor=none;align=center;verticalAlign=middle;whiteSpace=wrap;rounded=0;flipV=1;" parent="1" vertex="1">
          <mxGeometry x="50" width="1110" height="30" as="geometry" />
        </mxCell>
        <mxCell id="AsBp8XiL8Dx4Y6rQVwFH-2293" value="R, W: 111, H: 94, ORDER: 13, GC: {38, 20, 14, 39, 5, 9, 1, 4, 18, 3, 16, 56, 55} " style="text;html=1;strokeColor=none;fillColor=none;align=center;verticalAlign=middle;whiteSpace=wrap;rounded=0;flipV=1;" parent="1" vertex="1">
          <mxGeometry x="40" y="1190" width="1110" height="30" as="geometry" />
        </mxCell>
        <mxCell id="AsBp8XiL8Dx4Y6rQVwFH-5735" value="R, W: 111, H: 102, ORDER: 17, GC: {38, 22, 24, 16, 6, 27, 4, 12, 5, 3, 10, 2, 28, 7, 19, 64, 47} " style="text;html=1;strokeColor=none;fillColor=none;align=center;verticalAlign=middle;whiteSpace=wrap;rounded=0;flipV=1;" parent="1" vertex="1">
          <mxGeometry x="40" y="2300" width="1110" height="30" as="geometry" />
        </mxCell>
        <mxCell id="AsBp8XiL8Dx4Y6rQVwFH-7344" value="R, W: 111, H: 104, ORDER: 18, GC: {37, 39, 35, 4, 31, 26, 11, 9, 14, 15, 5, 20, 19, 13, 7, 38, 41, 32} " style="text;html=1;strokeColor=none;fillColor=none;align=center;verticalAlign=middle;whiteSpace=wrap;rounded=0;flipV=1;" parent="1" vertex="1">
          <mxGeometry x="40" y="3520" width="1110" height="30" as="geometry" />
        </mxCell>
        <mxCell id="yxIRlB4otUCOZGNhbC-s-1" value="" style="group;flipH=1;flipV=1;" vertex="1" connectable="0" parent="1">
          <mxGeometry x="30" y="3560" width="1110" height="1040" as="geometry" />
        </mxCell>
        <mxCell id="761dnnyQ54j-Cl0NHfQN-7326" value="35" style="rounded=0;whiteSpace=wrap;html=1;" parent="yxIRlB4otUCOZGNhbC-s-1" vertex="1">
          <mxGeometry x="760" y="690" width="350" height="350" as="geometry" />
        </mxCell>
        <mxCell id="761dnnyQ54j-Cl0NHfQN-7327" value="39" style="rounded=0;whiteSpace=wrap;html=1;" parent="yxIRlB4otUCOZGNhbC-s-1" vertex="1">
          <mxGeometry x="370" y="650" width="390" height="390" as="geometry" />
        </mxCell>
        <mxCell id="761dnnyQ54j-Cl0NHfQN-7328" value="31" style="rounded=0;whiteSpace=wrap;html=1;" parent="yxIRlB4otUCOZGNhbC-s-1" vertex="1">
          <mxGeometry x="800" y="380" width="310" height="310" as="geometry" />
        </mxCell>
        <mxCell id="761dnnyQ54j-Cl0NHfQN-7329" value="4" style="rounded=0;whiteSpace=wrap;html=1;" parent="yxIRlB4otUCOZGNhbC-s-1" vertex="1">
          <mxGeometry x="760" y="650" width="40" height="40" as="geometry" />
        </mxCell>
        <mxCell id="761dnnyQ54j-Cl0NHfQN-7330" value="37" style="rounded=0;whiteSpace=wrap;html=1;" parent="yxIRlB4otUCOZGNhbC-s-1" vertex="1">
          <mxGeometry y="670" width="370" height="370" as="geometry" />
        </mxCell>
        <mxCell id="761dnnyQ54j-Cl0NHfQN-7331" value="11" style="rounded=0;whiteSpace=wrap;html=1;" parent="yxIRlB4otUCOZGNhbC-s-1" vertex="1">
          <mxGeometry x="260" y="560" width="110" height="110" as="geometry" />
        </mxCell>
        <mxCell id="761dnnyQ54j-Cl0NHfQN-7332" value="26" style="rounded=0;whiteSpace=wrap;html=1;" parent="yxIRlB4otUCOZGNhbC-s-1" vertex="1">
          <mxGeometry y="410" width="260" height="260" as="geometry" />
        </mxCell>
        <mxCell id="761dnnyQ54j-Cl0NHfQN-7333" value="20" style="rounded=0;whiteSpace=wrap;html=1;" parent="yxIRlB4otUCOZGNhbC-s-1" vertex="1">
          <mxGeometry x="600" y="450" width="200" height="200" as="geometry" />
        </mxCell>
        <mxCell id="761dnnyQ54j-Cl0NHfQN-7334" value="14" style="rounded=0;whiteSpace=wrap;html=1;" parent="yxIRlB4otUCOZGNhbC-s-1" vertex="1">
          <mxGeometry x="460" y="510" width="140" height="140" as="geometry" />
        </mxCell>
        <mxCell id="761dnnyQ54j-Cl0NHfQN-7335" value="9" style="rounded=0;whiteSpace=wrap;html=1;" parent="yxIRlB4otUCOZGNhbC-s-1" vertex="1">
          <mxGeometry x="370" y="560" width="90" height="90" as="geometry" />
        </mxCell>
        <mxCell id="761dnnyQ54j-Cl0NHfQN-7336" value="5" style="rounded=0;whiteSpace=wrap;html=1;" parent="yxIRlB4otUCOZGNhbC-s-1" vertex="1">
          <mxGeometry x="410" y="510" width="50" height="50" as="geometry" />
        </mxCell>
        <mxCell id="761dnnyQ54j-Cl0NHfQN-7337" value="15" style="rounded=0;whiteSpace=wrap;html=1;" parent="yxIRlB4otUCOZGNhbC-s-1" vertex="1">
          <mxGeometry x="260" y="410" width="150" height="150" as="geometry" />
        </mxCell>
        <mxCell id="761dnnyQ54j-Cl0NHfQN-7338" value="19" style="rounded=0;whiteSpace=wrap;html=1;" parent="yxIRlB4otUCOZGNhbC-s-1" vertex="1">
          <mxGeometry x="410" y="320" width="190" height="190" as="geometry" />
        </mxCell>
        <mxCell id="761dnnyQ54j-Cl0NHfQN-7339" value="7" style="rounded=0;whiteSpace=wrap;html=1;" parent="yxIRlB4otUCOZGNhbC-s-1" vertex="1">
          <mxGeometry x="730" y="380" width="70" height="70" as="geometry" />
        </mxCell>
        <mxCell id="761dnnyQ54j-Cl0NHfQN-7340" value="13" style="rounded=0;whiteSpace=wrap;html=1;" parent="yxIRlB4otUCOZGNhbC-s-1" vertex="1">
          <mxGeometry x="600" y="320" width="130" height="130" as="geometry" />
        </mxCell>
        <mxCell id="761dnnyQ54j-Cl0NHfQN-7341" value="38" style="rounded=0;whiteSpace=wrap;html=1;" parent="yxIRlB4otUCOZGNhbC-s-1" vertex="1">
          <mxGeometry x="730" width="380" height="380" as="geometry" />
        </mxCell>
        <mxCell id="761dnnyQ54j-Cl0NHfQN-7342" value="41" style="rounded=0;whiteSpace=wrap;html=1;" parent="yxIRlB4otUCOZGNhbC-s-1" vertex="1">
          <mxGeometry width="410" height="410" as="geometry" />
        </mxCell>
        <mxCell id="761dnnyQ54j-Cl0NHfQN-7343" value="32" style="rounded=0;whiteSpace=wrap;html=1;" parent="yxIRlB4otUCOZGNhbC-s-1" vertex="1">
          <mxGeometry x="410" width="320" height="320" as="geometry" />
        </mxCell>
        <mxCell id="yxIRlB4otUCOZGNhbC-s-2" value="" style="group;flipV=1;" vertex="1" connectable="0" parent="1">
          <mxGeometry x="50" y="50" width="1110" height="980" as="geometry" />
        </mxCell>
        <mxCell id="761dnnyQ54j-Cl0NHfQN-390" value="41" style="rounded=0;whiteSpace=wrap;html=1;" parent="yxIRlB4otUCOZGNhbC-s-2" vertex="1">
          <mxGeometry y="570" width="410" height="410" as="geometry" />
        </mxCell>
        <mxCell id="761dnnyQ54j-Cl0NHfQN-391" value="26" style="rounded=0;whiteSpace=wrap;html=1;" parent="yxIRlB4otUCOZGNhbC-s-2" vertex="1">
          <mxGeometry x="410" y="720" width="260" height="260" as="geometry" />
        </mxCell>
        <mxCell id="761dnnyQ54j-Cl0NHfQN-392" value="44" style="rounded=0;whiteSpace=wrap;html=1;" parent="yxIRlB4otUCOZGNhbC-s-2" vertex="1">
          <mxGeometry x="670" y="540" width="440" height="440" as="geometry" />
        </mxCell>
        <mxCell id="761dnnyQ54j-Cl0NHfQN-393" value="15" style="rounded=0;whiteSpace=wrap;html=1;" parent="yxIRlB4otUCOZGNhbC-s-2" vertex="1">
          <mxGeometry x="410" y="570" width="150" height="150" as="geometry" />
        </mxCell>
        <mxCell id="761dnnyQ54j-Cl0NHfQN-394" value="11" style="rounded=0;whiteSpace=wrap;html=1;" parent="yxIRlB4otUCOZGNhbC-s-2" vertex="1">
          <mxGeometry x="560" y="610" width="110" height="110" as="geometry" />
        </mxCell>
        <mxCell id="761dnnyQ54j-Cl0NHfQN-395" value="4" style="rounded=0;whiteSpace=wrap;html=1;" parent="yxIRlB4otUCOZGNhbC-s-2" vertex="1">
          <mxGeometry x="560" y="570" width="40" height="40" as="geometry" />
        </mxCell>
        <mxCell id="761dnnyQ54j-Cl0NHfQN-396" value="7" style="rounded=0;whiteSpace=wrap;html=1;" parent="yxIRlB4otUCOZGNhbC-s-2" vertex="1">
          <mxGeometry x="600" y="540" width="70" height="70" as="geometry" />
        </mxCell>
        <mxCell id="761dnnyQ54j-Cl0NHfQN-397" value="57" style="rounded=0;whiteSpace=wrap;html=1;" parent="yxIRlB4otUCOZGNhbC-s-2" vertex="1">
          <mxGeometry width="570" height="570" as="geometry" />
        </mxCell>
        <mxCell id="761dnnyQ54j-Cl0NHfQN-398" value="3" style="rounded=0;whiteSpace=wrap;html=1;" parent="yxIRlB4otUCOZGNhbC-s-2" vertex="1">
          <mxGeometry x="570" y="540" width="30" height="30" as="geometry" />
        </mxCell>
        <mxCell id="761dnnyQ54j-Cl0NHfQN-399" value="54" style="rounded=0;whiteSpace=wrap;html=1;" parent="yxIRlB4otUCOZGNhbC-s-2" vertex="1">
          <mxGeometry x="570" width="540" height="540" as="geometry" />
        </mxCell>
        <mxCell id="yxIRlB4otUCOZGNhbC-s-3" value="" style="group;flipV=1;" vertex="1" connectable="0" parent="1">
          <mxGeometry x="40" y="1240" width="1110" height="940" as="geometry" />
        </mxCell>
        <mxCell id="761dnnyQ54j-Cl0NHfQN-2294" value="38" style="rounded=0;whiteSpace=wrap;html=1;" parent="yxIRlB4otUCOZGNhbC-s-3" vertex="1">
          <mxGeometry y="560" width="380" height="380" as="geometry" />
        </mxCell>
        <mxCell id="761dnnyQ54j-Cl0NHfQN-2295" value="20" style="rounded=0;whiteSpace=wrap;html=1;" parent="yxIRlB4otUCOZGNhbC-s-3" vertex="1">
          <mxGeometry x="380" y="740" width="200" height="200" as="geometry" />
        </mxCell>
        <mxCell id="761dnnyQ54j-Cl0NHfQN-2296" value="14" style="rounded=0;whiteSpace=wrap;html=1;" parent="yxIRlB4otUCOZGNhbC-s-3" vertex="1">
          <mxGeometry x="580" y="800" width="140" height="140" as="geometry" />
        </mxCell>
        <mxCell id="761dnnyQ54j-Cl0NHfQN-2297" value="39" style="rounded=0;whiteSpace=wrap;html=1;" parent="yxIRlB4otUCOZGNhbC-s-3" vertex="1">
          <mxGeometry x="720" y="550" width="390" height="390" as="geometry" />
        </mxCell>
        <mxCell id="761dnnyQ54j-Cl0NHfQN-2298" value="5" style="rounded=0;whiteSpace=wrap;html=1;" parent="yxIRlB4otUCOZGNhbC-s-3" vertex="1">
          <mxGeometry x="580" y="750" width="50" height="50" as="geometry" />
        </mxCell>
        <mxCell id="761dnnyQ54j-Cl0NHfQN-2299" value="9" style="rounded=0;whiteSpace=wrap;html=1;" parent="yxIRlB4otUCOZGNhbC-s-3" vertex="1">
          <mxGeometry x="630" y="710" width="90" height="90" as="geometry" />
        </mxCell>
        <mxCell id="761dnnyQ54j-Cl0NHfQN-2300" value="1" style="rounded=0;whiteSpace=wrap;html=1;" parent="yxIRlB4otUCOZGNhbC-s-3" vertex="1">
          <mxGeometry x="580" y="740" width="10" height="10" as="geometry" />
        </mxCell>
        <mxCell id="761dnnyQ54j-Cl0NHfQN-2301" value="4" style="rounded=0;whiteSpace=wrap;html=1;" parent="yxIRlB4otUCOZGNhbC-s-3" vertex="1">
          <mxGeometry x="590" y="710" width="40" height="40" as="geometry" />
        </mxCell>
        <mxCell id="761dnnyQ54j-Cl0NHfQN-2302" value="18" style="rounded=0;whiteSpace=wrap;html=1;" parent="yxIRlB4otUCOZGNhbC-s-3" vertex="1">
          <mxGeometry x="380" y="560" width="180" height="180" as="geometry" />
        </mxCell>
        <mxCell id="761dnnyQ54j-Cl0NHfQN-2303" value="3" style="rounded=0;whiteSpace=wrap;html=1;" parent="yxIRlB4otUCOZGNhbC-s-3" vertex="1">
          <mxGeometry x="560" y="710" width="30" height="30" as="geometry" />
        </mxCell>
        <mxCell id="761dnnyQ54j-Cl0NHfQN-2304" value="16" style="rounded=0;whiteSpace=wrap;html=1;" parent="yxIRlB4otUCOZGNhbC-s-3" vertex="1">
          <mxGeometry x="560" y="550" width="160" height="160" as="geometry" />
        </mxCell>
        <mxCell id="761dnnyQ54j-Cl0NHfQN-2305" value="56" style="rounded=0;whiteSpace=wrap;html=1;" parent="yxIRlB4otUCOZGNhbC-s-3" vertex="1">
          <mxGeometry width="560" height="560" as="geometry" />
        </mxCell>
        <mxCell id="761dnnyQ54j-Cl0NHfQN-2306" value="55" style="rounded=0;whiteSpace=wrap;html=1;" parent="yxIRlB4otUCOZGNhbC-s-3" vertex="1">
          <mxGeometry x="560" width="550" height="550" as="geometry" />
        </mxCell>
        <mxCell id="yxIRlB4otUCOZGNhbC-s-4" value="" style="group;flipV=1;" vertex="1" connectable="0" parent="1">
          <mxGeometry x="40" y="2350" width="1110" height="1020" as="geometry" />
        </mxCell>
        <mxCell id="761dnnyQ54j-Cl0NHfQN-5736" value="38" style="rounded=0;whiteSpace=wrap;html=1;" parent="yxIRlB4otUCOZGNhbC-s-4" vertex="1">
          <mxGeometry y="640" width="380" height="380" as="geometry" />
        </mxCell>
        <mxCell id="761dnnyQ54j-Cl0NHfQN-5737" value="22" style="rounded=0;whiteSpace=wrap;html=1;" parent="yxIRlB4otUCOZGNhbC-s-4" vertex="1">
          <mxGeometry x="380" y="800" width="220" height="220" as="geometry" />
        </mxCell>
        <mxCell id="761dnnyQ54j-Cl0NHfQN-5738" value="24" style="rounded=0;whiteSpace=wrap;html=1;" parent="yxIRlB4otUCOZGNhbC-s-4" vertex="1">
          <mxGeometry x="600" y="780" width="240" height="240" as="geometry" />
        </mxCell>
        <mxCell id="761dnnyQ54j-Cl0NHfQN-5739" value="16" style="rounded=0;whiteSpace=wrap;html=1;" parent="yxIRlB4otUCOZGNhbC-s-4" vertex="1">
          <mxGeometry x="380" y="640" width="160" height="160" as="geometry" />
        </mxCell>
        <mxCell id="761dnnyQ54j-Cl0NHfQN-5740" value="6" style="rounded=0;whiteSpace=wrap;html=1;" parent="yxIRlB4otUCOZGNhbC-s-4" vertex="1">
          <mxGeometry x="540" y="740" width="60" height="60" as="geometry" />
        </mxCell>
        <mxCell id="761dnnyQ54j-Cl0NHfQN-5741" value="27" style="rounded=0;whiteSpace=wrap;html=1;" parent="yxIRlB4otUCOZGNhbC-s-4" vertex="1">
          <mxGeometry x="840" y="750" width="270" height="270" as="geometry" />
        </mxCell>
        <mxCell id="761dnnyQ54j-Cl0NHfQN-5742" value="4" style="rounded=0;whiteSpace=wrap;html=1;" parent="yxIRlB4otUCOZGNhbC-s-4" vertex="1">
          <mxGeometry x="600" y="740" width="40" height="40" as="geometry" />
        </mxCell>
        <mxCell id="761dnnyQ54j-Cl0NHfQN-5743" value="12" style="rounded=0;whiteSpace=wrap;html=1;" parent="yxIRlB4otUCOZGNhbC-s-4" vertex="1">
          <mxGeometry x="640" y="660" width="120" height="120" as="geometry" />
        </mxCell>
        <mxCell id="761dnnyQ54j-Cl0NHfQN-5744" value="5" style="rounded=0;whiteSpace=wrap;html=1;" parent="yxIRlB4otUCOZGNhbC-s-4" vertex="1">
          <mxGeometry x="760" y="730" width="50" height="50" as="geometry" />
        </mxCell>
        <mxCell id="761dnnyQ54j-Cl0NHfQN-5745" value="3" style="rounded=0;whiteSpace=wrap;html=1;" parent="yxIRlB4otUCOZGNhbC-s-4" vertex="1">
          <mxGeometry x="810" y="750" width="30" height="30" as="geometry" />
        </mxCell>
        <mxCell id="761dnnyQ54j-Cl0NHfQN-5746" value="10" style="rounded=0;whiteSpace=wrap;html=1;" parent="yxIRlB4otUCOZGNhbC-s-4" vertex="1">
          <mxGeometry x="540" y="640" width="100" height="100" as="geometry" />
        </mxCell>
        <mxCell id="761dnnyQ54j-Cl0NHfQN-5747" value="2" style="rounded=0;whiteSpace=wrap;html=1;" parent="yxIRlB4otUCOZGNhbC-s-4" vertex="1">
          <mxGeometry x="810" y="730" width="20" height="20" as="geometry" />
        </mxCell>
        <mxCell id="761dnnyQ54j-Cl0NHfQN-5748" value="28" style="rounded=0;whiteSpace=wrap;html=1;" parent="yxIRlB4otUCOZGNhbC-s-4" vertex="1">
          <mxGeometry x="830" y="470" width="280" height="280" as="geometry" />
        </mxCell>
        <mxCell id="761dnnyQ54j-Cl0NHfQN-5749" value="7" style="rounded=0;whiteSpace=wrap;html=1;" parent="yxIRlB4otUCOZGNhbC-s-4" vertex="1">
          <mxGeometry x="760" y="660" width="70" height="70" as="geometry" />
        </mxCell>
        <mxCell id="761dnnyQ54j-Cl0NHfQN-5750" value="19" style="rounded=0;whiteSpace=wrap;html=1;" parent="yxIRlB4otUCOZGNhbC-s-4" vertex="1">
          <mxGeometry x="640" y="470" width="190" height="190" as="geometry" />
        </mxCell>
        <mxCell id="761dnnyQ54j-Cl0NHfQN-5751" value="64" style="rounded=0;whiteSpace=wrap;html=1;" parent="yxIRlB4otUCOZGNhbC-s-4" vertex="1">
          <mxGeometry width="640" height="640" as="geometry" />
        </mxCell>
        <mxCell id="761dnnyQ54j-Cl0NHfQN-5752" value="47" style="rounded=0;whiteSpace=wrap;html=1;" parent="yxIRlB4otUCOZGNhbC-s-4" vertex="1">
          <mxGeometry x="640" width="470" height="470" as="geometry" />
        </mxCell>
      </root>
    </mxGraphModel>
  </diagram>
</mxfile>
